<?xml version="1.0" standalone="no"?>
<svg version="1.1" preserveAspectRatio="xMidYMid meet" viewBox="0 0 24 24" class="ng-element" data-id="c25bd3c6102f421383df76692b8ea7dd" style="fill: rgb(255, 255, 255); width: 32px; height: 32px; filter: none;" xmlns="http://www.w3.org/2000/svg"><g><path xmlns:default="http://www.w3.org/2000/svg" id="long-arrow-right" d="M21,12.01c0-0.09-0.04-0.18-0.1-0.24l-4-3.64c-0.08-0.12-0.23-0.16-0.37-0.12  c-0.13,0.04-0.21,0.17-0.2,0.3v2.33h-13C3.16,10.64,3.01,10.77,3,10.95c0,0.02,0,0.04,0,0.06v2C3,13.19,3.14,13.34,3.31,13.34  c0.01,0,0.01,0,0.02,0h13v2.33c0,0.13,0.08,0.25,0.2,0.3c0.12,0.06,0.26,0.03,0.36-0.06l4-3.69C20.95,12.17,20.99,12.09,21,12.01  L21,12.01z" style="fill: rgb(255, 255, 255);"/></g></svg>