<?xml version="1.0" standalone="no"?>
<svg version="1.1" preserveAspectRatio="xMidYMid meet" viewBox="0 0 24 24" class="ng-element" data-id="71dc6ba6c19042118da496348d3b42c4" style="fill: rgb(61, 61, 64); width: 26px; height: 26px; filter: none;" xmlns="http://www.w3.org/2000/svg"><g><path xmlns:default="http://www.w3.org/2000/svg" id="repeat" d="M20,5.34c0.01-0.27-0.15-0.52-0.41-0.61c-0.25-0.13-0.55-0.06-0.73,0.15l-1.35,1.33  C16.78,5.51,15.93,4.96,15,4.58c-1.95-0.79-4.13-0.77-6.06,0.06C7,5.43,5.45,6.96,4.64,8.9c-0.85,1.98-0.85,4.23,0,6.21  c0.8,1.92,2.33,3.45,4.26,4.25C9.88,19.78,10.93,20,12,20c1.17,0,2.34-0.25,3.4-0.75c1.06-0.49,2-1.22,2.75-2.13  c0.05-0.06,0.08-0.15,0.08-0.23c0-0.08-0.04-0.16-0.1-0.21l-1.43-1.44c-0.07-0.06-0.16-0.09-0.26-0.09c-0.09,0-0.18,0.05-0.24,0.12  c-1.47,1.91-4.05,2.59-6.27,1.65c-1.28-0.54-2.3-1.56-2.84-2.84c-0.56-1.32-0.56-2.81,0-4.13c0.53-1.29,1.55-2.32,2.84-2.86  c1.93-0.82,4.16-0.43,5.7,1L14.2,9.53c-0.21,0.18-0.27,0.47-0.15,0.72c0.09,0.26,0.34,0.43,0.61,0.42h4.66  c0.37,0,0.67-0.3,0.68-0.67V5.34L20,5.34z" style="fill: rgb(61, 61, 64);"/></g></svg>